# xmcd CD database file generated by Grip 3.3.1
# 
# Track frame offsets:
#       182
#       10547
#       29085
#       37965
#       52182
#       72587
#       85402
#       99660
#       113457
#       124997
#       139950
#       157682
# 
# Disc length: 2334 seconds
# 
# Revision: 6
# Processed by: cddbd v1.5.1PL2 Copyright (c) Steve Scherf et al.
# Submitted via: Grip 3.3.1
# 
DISCID=9f091c0c
DTITLE=Elvis Presley - [36] Elvis Country
DYEAR=1970
DGENRE=Rock
TTITLE0=Snowbird
TTITLE1=Tomorrow Never Comes
TTITLE2=Little Cabin On The Hill
TTITLE3=Whole Lotta Shakin' Goin' On
TTITLE4=Funny How TIime Slips Away
TTITLE5=I Really Don't Want To Know
TTITLE6=There Goes My Everything
TTITLE7=It's Your Baby, You Rock It
TTITLE8=The Fool
TTITLE9=Faded Love
TTITLE10=I Washed My Hands In Muddy Water
TTITLE11=Make The World Go Away
EXTD=Elvis Country\n
EXTT0=
EXTT1=
EXTT2=
EXTT3=
EXTT4=
EXTT5=
EXTT6=
EXTT7=
EXTT8=
EXTT9=
EXTT10=
EXTT11=
PLAYORDER=
